<?xml version="1.0" standalone="no"?>
<!DOCTYPE svg PUBLIC "-//W3C//DTD SVG 20010904//EN"
 "http://www.w3.org/TR/2001/REC-SVG-20010904/DTD/svg10.dtd">
<svg version="1.0" xmlns="http://www.w3.org/2000/svg"
 width="500.000000pt" height="500.000000pt" viewBox="0 0 500.000000 500.000000"
 preserveAspectRatio="xMidYMid meet">
<metadata>
Created by potrace 1.16, written by Peter Selinger 2001-2019
</metadata>
<g transform="translate(0.000000,500.000000) scale(0.100000,-0.100000)"
fill="#ffffff" stroke="none">
<path d="M2575 4132 c-217 -74 -396 -272 -467 -517 -19 -67 -23 -103 -23 -225
0 -129 3 -156 28 -244 16 -54 32 -106 37 -115 5 -9 25 -49 44 -89 141 -290
449 -593 891 -875 66 -42 130 -77 143 -77 41 0 294 168 496 330 383 307 606
643 648 977 29 239 -65 519 -226 670 -173 162 -366 224 -550 177 -84 -21 -226
-95 -276 -144 -3 -3 -24 -23 -47 -44 l-42 -39 -63 55 c-195 170 -401 226 -593
160z m290 -117 c78 -22 173 -83 260 -167 101 -99 110 -99 193 -13 242 250 520
265 747 41 146 -144 218 -372 185 -585 l-12 -81 -243 0 c-219 0 -245 -2 -265
-18 -15 -12 -39 -66 -71 -158 -26 -76 -48 -130 -48 -119 -1 11 -5 103 -11 205
-5 102 -14 297 -20 434 -11 267 -15 286 -65 286 -46 0 -53 -17 -140 -364 -46
-186 -86 -340 -87 -341 -2 -2 -31 31 -66 72 -35 41 -71 77 -79 80 -40 15 -64
-19 -160 -235 -53 -117 -97 -211 -99 -210 -1 2 -7 127 -13 278 -23 590 -30
681 -49 703 -18 20 -51 22 -75 5 -11 -9 -43 -121 -99 -346 l-83 -333 -24 25
c-24 26 -27 26 -172 26 l-148 0 -8 38 c-15 72 -9 272 11 347 31 118 91 218
177 299 147 138 291 179 464 131z m-105 -1110 c8 -198 17 -340 24 -355 12 -26
59 -38 84 -22 7 5 60 114 118 243 58 129 114 253 124 276 11 24 20 47 20 53 0
23 22 5 89 -75 74 -87 97 -100 134 -72 11 8 33 77 65 202 46 185 47 188 53
140 4 -28 13 -201 19 -385 7 -208 16 -344 24 -360 14 -30 65 -39 89 -16 8 9
33 68 55 133 76 223 134 388 143 406 9 15 29 17 199 17 157 0 190 -2 190 -14
0 -8 -19 -50 -41 -93 -140 -265 -392 -516 -786 -781 -145 -98 -121 -98 -274 3
-216 145 -349 253 -509 415 -136 139 -234 276 -302 423 l-18 37 103 0 102 -1
45 -67 c38 -56 50 -67 77 -70 45 -4 54 14 104 224 l44 181 7 -56 c3 -31 12
-204 18 -386z"/>
<path d="M1989 2058 c-96 -12 -191 -58 -289 -138 -140 -115 -572 -329 -950
-471 -57 -22 -108 -45 -112 -52 -13 -20 -9 -119 7 -182 47 -177 172 -296 377
-356 55 -16 111 -23 225 -26 l151 -5 49 44 c130 119 280 181 528 218 170 26
488 27 756 3 107 -10 230 -18 274 -18 l81 0 94 62 c236 155 388 238 857 464
252 121 299 171 283 302 -12 101 -96 137 -275 116 -151 -17 -385 -79 -624
-167 l-135 -49 -42 33 c-55 42 -167 68 -374 89 -399 39 -511 56 -629 97 -102
35 -176 46 -252 36z m211 -148 c112 -39 262 -63 540 -90 228 -22 354 -40 401
-58 36 -14 72 -66 64 -92 -8 -25 -62 -53 -132 -70 -42 -9 -71 -9 -145 1 -51 7
-165 13 -253 13 -138 1 -170 -3 -232 -22 -85 -26 -133 -62 -133 -100 0 -52 59
-81 94 -47 53 53 241 69 483 41 126 -15 149 -15 205 -2 135 31 207 83 231 166
12 43 15 45 87 73 375 145 665 228 747 212 24 -4 37 -14 43 -31 15 -39 12 -51
-17 -83 -32 -33 -27 -31 -433 -229 -295 -145 -410 -209 -610 -341 l-95 -62
-80 5 c-44 3 -127 11 -185 17 -58 7 -251 12 -430 13 -276 1 -340 -2 -425 -18
-223 -41 -396 -111 -514 -207 l-63 -52 -122 5 c-130 6 -237 33 -314 82 -43 27
-104 92 -125 133 -22 42 -42 142 -31 152 5 5 83 38 174 74 357 141 727 332
850 440 44 39 121 83 170 98 60 18 161 10 250 -21z"/>
</g>
</svg>
