<svg xmlns="http://www.w3.org/2000/svg" width="752" height="752" viewBox="0 0 752 752" version="1.1"><path d="M 372.222 179.414 C 362.768 182.489, 356 191.577, 356 201.196 L 356 206 348.250 206.022 C 332.861 206.066, 323.715 213.673, 322.275 227.628 L 321.720 233 291.110 233.022 C 263.537 233.042, 260.098 233.227, 256.444 234.886 C 251.451 237.154, 245.711 243.683, 244.161 248.858 C 242.497 254.413, 242.497 548.587, 244.161 554.142 C 245.711 559.317, 251.451 565.846, 256.444 568.114 C 260.309 569.869, 265.981 569.957, 376.782 569.978 C 472.116 569.996, 493.644 569.757, 496.282 568.652 C 501.040 566.658, 505.799 562.289, 508.294 557.624 L 510.500 553.500 510.500 401.500 L 510.500 249.500 508.294 245.376 C 505.799 240.711, 501.040 236.342, 496.282 234.348 C 493.842 233.326, 486.292 233, 465.032 233 L 437 233 437 230.159 C 437 228.596, 436.363 225.201, 435.584 222.614 C 432.255 211.550, 423.993 206.026, 410.750 206.010 L 403 206 403 200.968 C 403 188.772, 394.468 179.731, 381.824 178.529 C 378.614 178.224, 374.802 178.575, 372.222 179.414 M 375.500 194.158 C 372.262 196.096, 371.066 198.262, 371.032 202.250 L 371 206 379.500 206 L 388 206 388 201.655 C 388 198.676, 387.410 196.776, 386.124 195.612 C 383.687 193.407, 378.044 192.635, 375.500 194.158 M 340.048 222.760 C 338.692 223.858, 337.660 226.115, 337.305 228.760 L 336.737 233 379.368 233 L 422 233 422 230.450 C 422 227.189, 419.547 222.424, 417.455 221.621 C 416.565 221.280, 399.273 221, 379.029 221 C 345.383 221, 342.035 221.151, 340.048 222.760 M 260.073 250.635 L 258 253.270 258 401.680 L 258 550.091 260.455 552.545 L 262.909 555 376.844 555 C 487.533 555, 490.846 554.946, 493.139 553.088 L 495.500 551.177 495.500 401.500 L 495.500 251.823 493.139 249.912 C 490.846 248.054, 487.527 248, 376.462 248 L 262.145 248 260.073 250.635 M 362.762 270.942 C 329.813 281.475, 319.565 323.565, 344 348 C 361.928 365.928, 390.202 366.217, 408.763 348.662 C 418.449 339.502, 423 328.909, 423 315.525 C 423 298.694, 415.541 284.689, 401.922 275.950 C 391.220 269.083, 375.047 267.015, 362.762 270.942 M 363.500 286.784 C 351.998 292.351, 345.785 302.186, 345.677 315 C 345.598 324.431, 348.214 330.821, 354.805 337.295 C 361.481 343.853, 367.693 346.401, 377 346.401 C 389.892 346.401, 400.162 339.716, 405.483 327.859 C 407.942 322.379, 408.189 320.856, 407.791 313.612 C 407.114 301.291, 402.105 293.099, 391.819 287.495 C 387.391 285.082, 385.076 284.537, 378 284.239 C 370.267 283.913, 368.959 284.142, 363.500 286.784 M 371 291 C 369.361 292.639, 369 294.333, 369 300.394 L 369 307.788 360.902 308.156 C 353.852 308.476, 352.558 308.828, 350.902 310.873 C 348.435 313.920, 348.492 317.084, 351.073 320.365 C 353 322.816, 353.700 323, 361.073 323 L 369 323 369 330.927 C 369 338.300, 369.184 339, 371.635 340.927 C 378.575 346.386, 384 341.394, 384 329.550 L 384 323 391.500 323 C 397.667 323, 399.356 322.644, 401 321 C 403.520 318.480, 403.569 313.924, 401.109 310.886 C 399.495 308.893, 398.115 308.494, 391.713 308.171 L 384.208 307.792 383.839 300.484 C 383.567 295.095, 382.974 292.629, 381.580 291.088 C 379.109 288.358, 373.687 288.313, 371 291 M 285 384 C 283.077 385.923, 283 387.333, 283 420.500 C 283 453.667, 283.077 455.077, 285 457 C 286.923 458.923, 288.333 459, 321.500 459 C 354.667 459, 356.077 458.923, 358 457 C 359.923 455.077, 360 453.667, 360 420.500 C 360 387.333, 359.923 385.923, 358 384 C 356.077 382.077, 354.667 382, 321.500 382 C 288.333 382, 286.923 382.077, 285 384 M 380.174 386.314 C 377.491 389.171, 377.388 393.022, 379.910 396.139 L 381.821 398.500 409.303 398.795 L 436.785 399.089 439.559 396.703 C 443.142 393.621, 443.375 388.532, 440.056 385.844 C 437.965 384.151, 435.508 384, 410.064 384 C 382.386 384, 382.346 384.003, 380.174 386.314 M 450 386 C 447.022 388.978, 447.333 394.330, 450.635 396.927 C 452.843 398.665, 454.682 399, 462 399 C 472.570 399, 476 397.145, 476 391.427 C 476 385.303, 473.544 384, 462 384 C 453.333 384, 451.733 384.267, 450 386 M 298 420.500 L 298 444 321.500 444 L 345 444 345 420.500 L 345 397 321.500 397 L 298 397 298 420.500 M 382.315 411.991 C 377.852 413.822, 376.554 420.554, 380 424 C 381.941 425.941, 383.333 426, 427 426 C 470.667 426, 472.059 425.941, 474 424 C 476.695 421.305, 476.642 415.891, 473.896 413.405 C 471.902 411.600, 469.506 411.489, 428.146 411.298 C 404.141 411.186, 383.517 411.498, 382.315 411.991 M 380.174 442.314 C 377.290 445.385, 377.403 449.493, 380.455 452.545 L 382.909 455 426.820 455 C 469.729 455, 470.790 454.953, 473.365 452.927 C 476.667 450.330, 476.978 444.978, 474 442 C 472.059 440.059, 470.667 440, 427.174 440 L 382.349 440 380.174 442.314 M 284.321 473.189 C 280.850 474.867, 279.527 479.185, 281.384 482.776 C 282.232 484.416, 283.654 486.037, 284.545 486.379 C 285.435 486.720, 327.898 487, 378.907 487 L 471.651 487 473.826 484.686 C 476.902 481.411, 476.698 476.694, 473.365 474.073 C 470.741 472.009, 470.342 472, 378.615 472.068 C 316.274 472.113, 285.796 472.476, 284.321 473.189 M 285.465 504.941 C 280.605 506.936, 279.058 513.196, 282.488 516.987 C 284.282 518.970, 285.422 519, 358 519 C 428.120 519, 431.770 518.911, 433.345 517.171 C 435.720 514.547, 435.477 508.742, 432.895 506.405 C 430.871 504.573, 428.047 504.492, 359.145 504.303 C 319.740 504.195, 286.584 504.482, 285.465 504.941 M 447 504.668 C 443.637 505.997, 442 508.397, 442 512 C 442 518.294, 443.698 519, 458.829 519 C 470.667 519, 472.202 518.798, 474 517 C 476.526 514.474, 476.567 509.922, 474.091 506.861 C 472.299 504.646, 471.451 504.487, 460.341 504.288 C 453.828 504.171, 447.825 504.342, 447 504.668" stroke="none" fill="#fffcfc" fill-rule="evenodd"/><path d="" stroke="none" fill="#fcfcfc" fill-rule="evenodd"/></svg>